<svg xmlns="http://www.w3.org/2000/svg" viewBox="0 0 512 512">
  <defs>
    <linearGradient id="gradient" x1="0%" y1="0%" x2="100%" y2="100%">
      <stop offset="0%" stop-color="#8B5CF6" />
      <stop offset="100%" stop-color="#EC4899" />
    </linearGradient>
  </defs>
  <rect width="512" height="512" rx="128" fill="#1F2937" />
  <circle cx="256" cy="256" r="160" fill="url(#gradient)" />
  <path d="M214 180v152a40 40 0 0080 0v-152a40 40 0 00-80 0z" fill="#FFF" />
  <path d="M326 180v152a40 40 0 0080 0v-152a40 40 0 00-80 0z" fill="#FFF" />
  <path d="M106 180v152a40 40 0 0080 0v-152a40 40 0 00-80 0z" fill="#FFF" />
  <rect x="106" y="220" width="300" height="40" rx="20" fill="#FFF" />
</svg> 